<?xml version="1.0"?>
<!DOCTYPE svg PUBLIC "-//W3C//DTD SVG 1.1//EN" "http://www.w3.org/Graphics/SVG/1.1/DTD/svg11.dtd">
<svg width="638.0437402643122mm" height="257.56317963611724mm" viewBox="0 0 638.0437402643122 257.56317963611724" xmlns="http://www.w3.org/2000/svg" version="1.1">
<g id="________________" transform="translate(-76.871591,-64.582447) scale(1,-1)">
<path id="_________________w0000"  d="M 615.2444444444444 -128.1288888888889 L 608.1888888888889 -123.3311111111111 L 605.6488888888889 -132.07999999999998 L 566.1377777777777 -177.79999999999998 L 528.3199999999999 -220.13333333333333 L 516.4666666666666 -222.95555555555555 L 512.2333333333333 -213.64222222222222 L 519.5711111111111 -207.1511111111111 L 500.38 -211.10222222222222 L 509.9755555555555 -230.57555555555555 L 539.3266666666666 -220.98 C 539.3266666666666 -220.98 574.2827111111111 -175.96329777777777 583.9177777777777 -172.71999999999997 L 620.0422222222222 -146.1911111111111 L 623.7111111111111 -146.1911111111111 C 623.7111111111111 -146.1911111111111 621.3602 -138.9205022222222 615.2444444444444 -128.1288888888889 " stroke="#191919" stroke-width="0.7 px" style="stroke-width:0.7;stroke-miterlimit:4;stroke-dasharray:none;stroke-linecap:square;fill:none;fill-opacity:1;fill-rule: evenodd"/>
<title>b'________________'</title>
</g>
<g id="________________001" transform="translate(-76.871591,-64.582447) scale(1,-1)">
<path id="________________001_w0000"  d="M 607.06 -156.63333333333333 C 607.06 -156.63333333333333 674.4405555555555 -205.65533333333335 673.0999999999999 -214.48888888888888 L 655.6022222222222 -228.03555555555553 L 677.6155555555555 -227.18888888888887 L 703.8622222222222 -220.41555555555556 L 708.66 -213.64222222222222 C 708.66 -213.64222222222222 705.6486888888888 -189.72219555555554 611.8577777777778 -148.7311111111111 L 607.06 -156.63333333333333 " stroke="#191919" stroke-width="0.7 px" style="stroke-width:0.7;stroke-miterlimit:4;stroke-dasharray:none;stroke-linecap:square;fill:none;fill-opacity:1;fill-rule: evenodd"/>
<title>b'________________001'</title>
</g>
<g id="________________002" transform="translate(-76.871591,-64.582447) scale(1,-1)">
<path id="________________002_w0000"  d="M 377.6133333333333 -195.57999999999998 C 377.6133333333333 -195.57999999999998 437.5065333333333 -252.14326 438.2911111111111 -265.8533333333333 L 479.2133333333333 -257.1044444444444 L 500.38 -231.70444444444442 L 493.0422222222222 -215.89999999999998 L 463.9733333333333 -215.0533333333333 L 484.85777777777776 -227.75333333333333 L 475.2622222222222 -241.86444444444444 L 451.8377777777778 -243.83999999999997 L 379.58888888888885 -189.3711111111111 C 379.58888888888885 -189.3711111111111 371.6753777777778 -186.4464422222222 377.6133333333333 -195.57999999999998 " stroke="#191919" stroke-width="0.7 px" style="stroke-width:0.7;stroke-miterlimit:4;stroke-dasharray:none;stroke-linecap:square;fill:none;fill-opacity:1;fill-rule: evenodd"/>
<title>b'________________002'</title>
</g>
<g id="________________003" transform="translate(-76.871591,-64.582447) scale(1,-1)">
<path id="________________003_w0000"  d="M 305.3644444444444 -215.33555555555554 L 275.16666666666663 -229.44666666666666 L 290.68888888888887 -253.71777777777777 L 342.61777777777775 -230.85777777777776 C 342.61777777777775 -230.85777777777776 360.45986666666664 -208.9172577777778 374.22666666666663 -197.83777777777777 L 382.6933333333333 -180.6222222222222 L 377.3311111111111 -176.10666666666665 L 364.9133333333333 -176.95333333333332 L 368.5822222222222 -181.18666666666667 C 368.5822222222222 -181.18666666666667 338.32235555555553 -226.6315 323.9911111111111 -227.18888888888887 L 296.3333333333333 -233.67999999999998 L 292.94666666666666 -228.31777777777776 L 305.3644444444444 -215.33555555555554 " stroke="#191919" stroke-width="0.7 px" style="stroke-width:0.7;stroke-miterlimit:4;stroke-dasharray:none;stroke-linecap:square;fill:none;fill-opacity:1;fill-rule: evenodd"/>
<title>b'________________003'</title>
</g>
<g id="________________004" transform="translate(-76.871591,-64.582447) scale(1,-1)">
<path id="________________004_w0000"  d="M 338.66666666666663 -121.63777777777777 L 329.3533333333333 -121.63777777777777 C 329.3533333333333 -121.63777777777777 335.92911111111107 -134.27032666666668 352.77777777777777 -130.38666666666666 C 352.77777777777777 -130.38666666666666 371.9801777777777 -130.86898444444444 378.46 -132.07999999999998 C 378.46 -132.07999999999998 382.0950222222222 -136.1186 375.35555555555555 -137.16 C 375.35555555555555 -137.16 356.0995333333333 -136.31869555555556 350.23777777777775 -144.78 C 350.23777777777775 -144.78 344.9630444444444 -149.18040888888888 354.18888888888887 -147.03777777777776 C 354.18888888888887 -147.03777777777776 371.3367111111111 -146.99177555555553 374.7911111111111 -148.16666666666666 C 374.7911111111111 -148.16666666666666 382.3208 -151.6828733333333 374.22666666666663 -155.2222222222222 C 374.22666666666663 -155.2222222222222 352.5463555555556 -155.27866666666668 344.02888888888884 -164.25333333333333 C 344.02888888888884 -164.25333333333333 340.5744888888889 -170.4139622222222 339.79555555555555 -175.82444444444442 C 339.79555555555555 -175.82444444444442 344.2490222222222 -171.12967777777777 350.23777777777775 -168.76888888888888 C 350.23777777777775 -168.76888888888888 357.2030222222222 -164.27986222222222 374.7911111111111 -166.5111111111111 C 374.7911111111111 -166.5111111111111 373.9444444444444 -175.20355555555554 385.79777777777775 -169.89777777777778 C 385.79777777777775 -169.89777777777778 395.53444444444443 -167.99164888888888 398.78 -167.35777777777776 C 398.78 -167.35777777777776 405.3811777777778 -156.30398 405.5533333333333 -139.98222222222222 C 405.5533333333333 -139.98222222222222 409.34922222222224 -139.06415333333334 408.94 -133.77333333333334 C 408.94 -133.77333333333334 414.1780444444444 -132.4751111111111 416.8422222222222 -130.10444444444443 C 416.8422222222222 -130.10444444444443 423.97397777777775 -137.91381555555554 427.0022222222222 -137.72444444444443 C 427.0022222222222 -137.72444444444443 443.03526666666664 -117.71206666666667 429.26 -116.27555555555556 C 429.26 -116.27555555555556 431.8818444444444 -111.15689111111111 440.5488888888889 -111.75999999999999 C 440.5488888888889 -111.75999999999999 444.79351111111106 -115.53980222222222 438.85555555555555 -116.83999999999999 C 438.85555555555555 -116.83999999999999 437.3315555555555 -120.88650222222222 442.2422222222222 -118.53333333333333 C 442.2422222222222 -118.53333333333333 447.8951333333333 -114.48175111111111 443.08888888888885 -109.50222222222222 C 438.28264444444443 -104.52269333333332 427.75857777777776 -111.41314888888888 420.2288888888889 -116.83999999999999 L 417.40666666666664 -115.14666666666666 C 417.40666666666664 -115.14666666666666 414.1611111111111 -71.91586666666666 380.71777777777777 -70.83777777777775 C 380.71777777777777 -70.83777777777777 374.4016444444444 -88.49105999999999 383.25777777777773 -96.23777777777778 C 392.1139111111111 -103.98449555555555 401.8844444444444 -113.1711111111111 401.8844444444444 -113.1711111111111 L 398.78 -114.01777777777777 C 398.78 -114.01777777777777 389.7263111111111 -108.46223333333333 385.5155555555555 -104.42222222222222 C 385.5155555555555 -104.42222222222222 382.2022666666666 -102.9247511111111 383.25777777777773 -108.0911111111111 C 383.25777777777773 -108.0911111111111 385.3518666666667 -115.74356666666667 391.72444444444443 -117.40444444444444 C 391.72444444444443 -117.40444444444444 381.8579555555555 -117.89381777777777 379.3066666666667 -120.50888888888888 C 379.3066666666667 -120.50888888888888 354.05906666666664 -120.51820222222221 338.66666666666663 -121.63777777777777 " stroke="#191919" stroke-width="0.7 px" style="stroke-width:0.7;stroke-miterlimit:4;stroke-dasharray:none;stroke-linecap:square;fill:none;fill-opacity:1;fill-rule: evenodd"/>
<title>b'________________004'</title>
</g>
<g id="________________005" transform="translate(-76.871591,-64.582447) scale(1,-1)">
<path id="________________005_w0000"  d="M 427.8488888888889 -129.25777777777776 C 427.8488888888889 -129.25777777777776 428.8536 -121.08772666666665 425.3088888888889 -119.94444444444444 C 425.3088888888889 -119.94444444444444 420.9457333333333 -118.13286 421.0755555555555 -124.74222222222221 C 421.0755555555555 -124.74222222222221 421.47066666666666 -129.34554888888889 425.5911111111111 -130.10444444444443 C 425.5911111111111 -130.10444444444443 426.7341111111111 -130.72194666666667 427.8488888888889 -129.25777777777776 " stroke="#191919" stroke-width="0.7 px" style="stroke-width:0.7;stroke-miterlimit:4;stroke-dasharray:none;stroke-linecap:square;fill:none;fill-opacity:1;fill-rule: evenodd"/>
<title>b'________________005'</title>
</g>
<g id="________________006" transform="translate(-76.871591,-64.582447) scale(1,-1)">
<path id="________________006_w0000"  d="M 110.34888888888888 -110.34888888888888 C 110.34888888888888 -110.34888888888888 109.75368222222222 -115.81383999999998 112.04222222222222 -116.55777777777777 L 116.83999999999999 -116.27555555555556 L 114.58222222222221 -136.31333333333333 C 114.58222222222221 -136.31333333333333 107.92544666666666 -137.1882222222222 103.0111111111111 -141.39333333333332 C 103.0111111111111 -141.39333333333332 97.58962222222222 -141.0208 97.08444444444444 -142.80444444444444 L 86.92444444444445 -161.99555555555554 C 86.92444444444445 -161.99555555555554 84.74032666666668 -164.72323333333333 86.36 -166.5111111111111 C 86.36 -166.5111111111111 92.51639555555556 -172.75527777777776 109.50222222222222 -174.1311111111111 L 108.65555555555555 -185.98444444444442 L 95.3911111111111 -197.83777777777777 L 92.85111111111111 -197.83777777777777 L 88.33555555555554 -202.63555555555556 C 88.33555555555554 -202.63555555555556 87.15022222222223 -207.04499555555554 89.74666666666666 -207.71555555555554 Q 91.980770593978 -208.26862907061053 93.97999999999999 -209.40888888888887 L 95.10888888888888 -207.4333333333333 C 95.10888888888888 -207.4333333333333 120.53033777777777 -190.21015777777777 124.74222222222221 -189.3711111111111 C 124.74222222222221 -189.3711111111111 128.58975777777778 -188.78662888888888 130.6688888888889 -191.34666666666666 C 130.6688888888889 -191.34666666666666 139.30319555555553 -190.59369777777778 140.54666666666665 -177.51777777777778 C 140.54666666666665 -177.51777777777778 139.3635911111111 -170.54350222222223 136.87777777777777 -170.17999999999998 L 132.07999999999998 -171.87333333333333 C 132.07999999999998 -171.87333333333333 130.92006666666666 -173.00617333333332 130.6688888888889 -174.41333333333333 C 130.6688888888889 -174.41333333333333 129.6328511111111 -177.88805333333332 128.4111111111111 -178.92888888888888 L 125.30666666666666 -179.2111111111111 C 125.30666666666666 -179.2111111111111 122.08933333333333 -177.48955555555554 124.74222222222221 -171.30888888888887 L 134.62 -167.64 C 134.62 -167.64 140.99229555555556 -167.4839311111111 143.6511111111111 -163.9711111111111 C 143.6511111111111 -163.9711111111111 147.60222222222222 -151.95070222222222 147.88444444444443 -147.32 C 147.88444444444443 -147.32 148.51944444444445 -142.57443333333333 143.36888888888888 -140.54666666666665 C 143.36888888888888 -140.54666666666665 136.49790666666667 -137.4521 133.77333333333334 -136.59555555555553 L 133.77333333333334 -115.99333333333333 L 135.74888888888887 -111.47777777777777 C 135.74888888888887 -111.47777777777777 132.20587111111112 -105.93973111111112 129.82222222222222 -105.26888888888888 L 110.34888888888888 -110.34888888888888 " stroke="#191919" stroke-width="0.7 px" style="stroke-width:0.7;stroke-miterlimit:4;stroke-dasharray:none;stroke-linecap:square;fill:none;fill-opacity:1;fill-rule: evenodd"/>
<title>b'________________006'</title>
</g>
<g id="________________007" transform="translate(-76.871591,-64.582447) scale(1,-1)">
<path id="________________007_w0000"  d="M 103.0111111111111 -151.83555555555554 C 103.0111111111111 -151.83555555555554 104.32711333333333 -146.67399333333333 107.24444444444444 -146.1911111111111 C 107.24444444444444 -146.1911111111111 114.26556888888888 -143.14988444444444 113.73555555555555 -152.11777777777777 C 113.73555555555555 -152.11777777777777 115.43707333333333 -161.41446 111.47777777777777 -164.25333333333333 C 111.47777777777777 -164.25333333333333 102.93096 -162.96809333333334 103.0111111111111 -151.83555555555554 " stroke="#191919" stroke-width="0.7 px" style="stroke-width:0.7;stroke-miterlimit:4;stroke-dasharray:none;stroke-linecap:square;fill:none;fill-opacity:1;fill-rule: evenodd"/>
<title>b'________________007'</title>
</g>
<g id="________________008" transform="translate(-76.871591,-64.582447) scale(1,-1)">
<path id="________________008_w0000"  d="M 125.30666666666666 -153.24666666666667 C 125.30666666666666 -153.24666666666667 128.36341555555555 -146.34972 131.79777777777778 -145.90888888888887 C 131.79777777777778 -145.90888888888887 138.62981333333332 -145.44209333333333 138.85333333333332 -149.85999999999999 C 138.85333333333332 -149.85999999999999 139.8360311111111 -156.5633422222222 133.20888888888888 -160.86666666666665 C 133.20888888888888 -160.86666666666665 128.50960666666666 -164.3854133333333 124.74222222222221 -164.81777777777776 C 124.74222222222221 -164.81777777777776 120.8213088888889 -163.57825777777776 125.30666666666666 -153.24666666666667 " stroke="#191919" stroke-width="0.7 px" style="stroke-width:0.7;stroke-miterlimit:4;stroke-dasharray:none;stroke-linecap:square;fill:none;fill-opacity:1;fill-rule: evenodd"/>
<title>b'________________008'</title>
</g>
<g id="________________009" transform="translate(-76.871591,-64.582447) scale(1,-1)">
<path id="________________009_w0000"  d="M 141.95777777777778 -96.52 L 147.60222222222222 -101.03555555555555 L 150.70666666666665 -109.22 C 150.70666666666665 -109.22 148.16666666666666 -117.22890222222222 149.01333333333332 -122.48444444444443 L 145.90888888888887 -124.74222222222221 C 145.90888888888887 -124.74222222222221 141.50086 -123.68755777777777 141.39333333333332 -129.82222222222222 L 142.80444444444444 -135.18444444444444 L 147.32 -138.5711111111111 L 156.3511111111111 -132.64444444444445 C 156.3511111111111 -132.64444444444445 157.79044444444443 -146.13861777777777 161.14888888888888 -149.85999999999999 L 162.56 -153.8111111111111 C 162.56 -153.8111111111111 134.1072022222222 -195.35224666666664 130.95111111111112 -198.96666666666667 C 130.95111111111112 -198.96666666666667 96.52 -248.52234888888887 88.05333333333333 -253.1533333333333 L 84.10222222222222 -253.43555555555554 C 84.10222222222222 -253.43555555555554 82.33776888888889 -254.85259333333332 83.53777777777778 -258.2333333333333 C 83.53777777777778 -258.2333333333333 83.5166111111111 -264.1007333333333 88.61777777777777 -264.4422222222222 L 95.95555555555555 -261.3377777777778 C 95.95555555555555 -261.3377777777778 114.07619777777776 -233.26061777777778 123.04888888888888 -228.8822222222222 Q 143.30936133693456 -206.4421981421523 161.1488888888889 -182.03333333333336 C 161.14888888888888 -182.03333333333333 166.09342222222222 -180.59174222222222 160.01999999999998 -189.93555555555554 L 163.12444444444444 -193.04 L 167.92222222222222 -190.21777777777777 C 167.92222222222222 -190.21777777777777 167.52033777777777 -198.63759555555552 154.65777777777777 -212.2311111111111 C 154.65777777777777 -212.2311111111111 158.87897555555554 -217.4053733333333 164.53555555555556 -216.46444444444444 L 172.72 -214.48888888888888 C 172.72 -214.48888888888888 175.32632222222222 -216.28861999999998 173.0022222222222 -219.8511111111111 C 173.0022222222222 -219.8511111111111 154.5448888888889 -241.8362222222222 147.32 -247.5088888888889 C 147.32 -247.5088888888889 144.46504 -254.34261777777775 156.3511111111111 -254.2822222222222 L 173.8488888888889 -251.45999999999998 C 173.8488888888889 -251.45999999999998 178.48862222222223 -254.39849777777778 176.38888888888889 -282.5044444444444 C 176.38888888888889 -282.5044444444444 175.5103311111111 -313.43035555555554 176.6711111111111 -314.67777777777775 C 177.8318911111111 -315.9252 181.09438 -317.07666666666665 181.7511111111111 -313.5488888888889 C 181.7511111111111 -313.5488888888889 178.70311111111113 -272.33287333333334 207.71555555555554 -243.27555555555554 C 207.71555555555554 -243.27555555555554 210.77682 -235.3933711111111 204.04666666666665 -235.65555555555554 L 181.7511111111111 -238.47777777777776 C 181.7511111111111 -238.47777777777776 177.9603022222222 -238.2065622222222 183.72666666666666 -233.9622222222222 C 183.72666666666666 -233.9622222222222 195.65845777777778 -218.2229711111111 196.70888888888888 -205.73999999999998 C 196.70888888888888 -205.73999999999998 198.4530222222222 -199.47466666666665 188.80666666666664 -200.9422222222222 C 188.80666666666664 -200.9422222222222 181.737 -202.90479555555552 181.18666666666667 -198.96666666666667 C 181.18666666666667 -198.96666666666667 179.8602222222222 -183.59938444444444 182.31555555555553 -177.79999999999998 L 179.2111111111111 -174.1311111111111 L 179.77555555555554 -171.02666666666667 C 179.77555555555554 -171.02666666666667 235.91209555555554 -210.92216444444443 240.45333333333332 -219.28666666666666 C 240.45333333333332 -219.28666666666666 247.10869777777776 -230.91111777777775 264.72444444444443 -221.82666666666665 L 298.5911111111111 -206.0222222222222 L 289.84222222222223 -194.4511111111111 L 273.19111111111107 -198.11999999999998 L 285.6088888888889 -199.81333333333333 L 287.58444444444444 -202.63555555555556 L 262.46666666666664 -207.71555555555554 L 192.19333333333333 -163.12444444444444 L 209.12666666666667 -117.68666666666667 L 213.64222222222222 -112.32444444444444 L 214.20666666666665 -106.39777777777778 L 193.60444444444443 -98.77777777777777 L 182.59777777777776 -104.98666666666666 L 183.44444444444443 -109.50222222222222 L 173.56666666666666 -110.34888888888888 L 179.4933333333333 -95.95555555555555 L 175.26 -89.18222222222222 C 175.26 -89.18222222222222 161.2380711111111 -92.06088888888888 150.70666666666665 -90.59333333333333 L 146.47333333333333 -90.02888888888889 L 141.95777777777778 -96.52 " stroke="#191919" stroke-width="0.7 px" style="stroke-width:0.7;stroke-miterlimit:4;stroke-dasharray:none;stroke-linecap:square;fill:none;fill-opacity:1;fill-rule: evenodd"/>
<title>b'________________009'</title>
</g>
<g id="________________010" transform="translate(-76.871591,-64.582447) scale(1,-1)">
<path id="________________010_w0000"  d="M 164.81777777777776 -123.04888888888888 L 179.2111111111111 -121.35555555555555 C 179.2111111111111 -121.35555555555555 182.79533333333333 -130.78798666666665 173.28444444444443 -142.23999999999998 C 173.28444444444443 -142.23999999999998 164.1031911111111 -127.33697333333333 164.81777777777776 -123.04888888888888 " stroke="#191919" stroke-width="0.7 px" style="stroke-width:0.7;stroke-miterlimit:4;stroke-dasharray:none;stroke-linecap:square;fill:none;fill-opacity:1;fill-rule: evenodd"/>
<title>b'________________010'</title>
</g>
<g id="________________011" transform="translate(-76.871591,-64.582447) scale(1,-1)">
<path id="________________011_w0000"  d="M 414.3022222222222 -113.73555555555555 C 414.3022222222222 -113.73555555555555 414.9259333333333 -84.61868888888888 391.72444444444443 -75.91777777777777 C 391.72444444444443 -75.91777777777777 384.6124444444444 -72.92142444444444 382.12888888888887 -73.94222222222221 C 382.12888888888887 -73.94222222222221 378.39791111111106 -88.69792888888888 383.53999999999996 -93.69777777777777 C 383.53999999999996 -93.69777777777777 390.2964 -103.50753999999999 403.29555555555555 -112.32444444444444 C 403.29555555555555 -112.32444444444444 410.1987111111111 -110.2625288888889 414.3022222222222 -113.73555555555555 " stroke="#191919" stroke-width="0.7 px" style="stroke-width:0.7;stroke-miterlimit:4;stroke-dasharray:none;stroke-linecap:square;fill:none;fill-opacity:1;fill-rule: evenodd"/>
<title>b'________________011'</title>
</g>
<g id="________________012" transform="translate(-76.871591,-64.582447) scale(1,-1)">
<path id="________________012_w0000"  d="M 396.8044444444444 -115.14666666666666 C 396.8044444444444 -115.14666666666666 385.51837777777774 -107.41998666666666 385.5155555555555 -106.39777777777778 C 385.5155555555555 -106.39777777777778 383.46944444444443 -113.88287555555554 393.7 -117.12222222222222 C 393.7 -117.12222222222222 395.6134666666666 -115.21665777777777 396.8044444444444 -115.14666666666666 " stroke="#191919" stroke-width="0.7 px" style="stroke-width:0.7;stroke-miterlimit:4;stroke-dasharray:none;stroke-linecap:square;fill:none;fill-opacity:1;fill-rule: evenodd"/>
<title>b'________________012'</title>
</g>
<g id="________________013" transform="translate(-76.871591,-64.582447) scale(1,-1)">
<path id="________________013_w0000"  d="M 315.52444444444444 -185.98444444444442 L 325.4022222222222 -179.2111111111111 L 342.9 -186.54888888888888 C 342.9 -186.54888888888888 347.35628888888886 -190.54910666666666 345.72222222222223 -196.14444444444445 C 344.08815555555555 -201.73978222222223 329.3533333333333 -210.53777777777776 329.3533333333333 -210.53777777777776 L 329.6355555555555 -205.45777777777778 L 319.7577777777778 -191.34666666666666 L 312.1377777777778 -188.80666666666664 L 315.52444444444444 -185.98444444444442 " stroke="#191919" stroke-width="0.7 px" style="stroke-width:0.7;stroke-miterlimit:4;stroke-dasharray:none;stroke-linecap:square;fill:none;fill-opacity:1;fill-rule: evenodd"/>
<title>b'________________013'</title>
</g>
<g id="________________014" transform="translate(-76.871591,-64.582447) scale(1,-1)">
<path id="________________014_w0000"  d="M 408.94 -179.77555555555554 L 414.8666666666666 -173.0022222222222 L 430.1066666666666 -182.31555555555553 C 430.1066666666666 -182.31555555555553 433.1941777777778 -186.62085555555555 431.23555555555555 -191.34666666666666 L 419.6644444444444 -207.4333333333333 L 407.52888888888884 -204.89333333333332 L 404.70666666666665 -199.5311111111111 L 410.06888888888886 -201.7888888888889 C 410.06888888888886 -201.7888888888889 413.35395555555556 -188.41522444444445 408.94 -179.77555555555554 " stroke="#191919" stroke-width="0.7 px" style="stroke-width:0.7;stroke-miterlimit:4;stroke-dasharray:none;stroke-linecap:square;fill:none;fill-opacity:1;fill-rule: evenodd"/>
<title>b'________________014'</title>
</g>
<g id="________________015" transform="translate(-76.871591,-64.582447) scale(1,-1)">
<path id="________________015_w0000"  d="M 597.1822222222222 -171.5911111111111 L 610.4466666666666 -170.17999999999998 L 612.14 -186.8311111111111 L 638.3866666666667 -212.51333333333332 L 639.2333333333333 -257.38666666666666 L 610.4466666666666 -283.91555555555556 L 571.7822222222222 -257.38666666666666 L 572.3466666666667 -215.33555555555554 L 598.5933333333332 -188.80666666666664 L 597.1822222222222 -171.5911111111111 " stroke="#191919" stroke-width="0.7 px" style="stroke-width:0.7;stroke-miterlimit:4;stroke-dasharray:none;stroke-linecap:square;fill:none;fill-opacity:1;fill-rule: evenodd"/>
<title>b'________________015'</title>
</g>
<g id="________________016" transform="translate(-76.871591,-64.582447) scale(1,-1)">
<path id="________________016_w0000"  d="M 587.5866666666666 -229.44666666666666 C 587.5866666666666 -229.44666666666666 585.8199555555555 -225.92142888888887 590.6911111111111 -221.26222222222222 L 599.4399999999999 -214.7711111111111 C 599.4399999999999 -214.7711111111111 604.6244222222222 -209.51415777777777 611.2933333333333 -214.7711111111111 L 620.6066666666667 -220.98 C 620.6066666666667 -220.98 624.9416 -223.62216444444442 625.4044444444444 -229.7288888888889 L 625.6866666666666 -250.61333333333332 C 625.6866666666666 -250.61333333333332 626.1128222222222 -255.94055999999998 620.3244444444445 -258.79777777777775 L 612.7044444444444 -263.87777777777774 C 612.7044444444444 -263.87777777777774 605.8774888888888 -268.39671999999996 598.8755555555555 -263.31333333333333 L 590.1266666666667 -256.53999999999996 C 590.1266666666667 -256.53999999999996 586.2743333333333 -255.22935999999999 586.1755555555555 -249.48444444444442 L 587.5866666666666 -229.44666666666666 " stroke="#191919" stroke-width="0.7 px" style="stroke-width:0.7;stroke-miterlimit:4;stroke-dasharray:none;stroke-linecap:square;fill:none;fill-opacity:1;fill-rule: evenodd"/>
<title>b'________________016'</title>
</g>
<g id="________________017" transform="translate(-76.871591,-64.582447) scale(1,-1)">
<path id="________________017_w0000"  d="M 595.771111111111 -100.18888888888888 L 585.0466666666666 -136.31333333333333 L 572.911111111111 -149.29555555555555 L 565.291111111111 -145.0622222222222 L 561.3399999999999 -131.79777777777778 L 569.8066666666666 -125.58888888888889 L 581.3777777777777 -104.14 L 585.6111111111111 -94.26222222222222 L 594.0777777777778 -98.77777777777777 L 595.771111111111 -100.18888888888888 " stroke="#191919" stroke-width="0.7 px" style="stroke-width:0.7;stroke-miterlimit:4;stroke-dasharray:none;stroke-linecap:square;fill:none;fill-opacity:1;fill-rule: evenodd"/>
<title>b'________________017'</title>
</g>
<g id="________________018" transform="translate(-76.871591,-64.582447) scale(1,-1)">
<path id="________________018_w0000"  d="M 605.9311111111111 -110.63111111111111 L 616.0911111111111 -99.62444444444444 L 625.6866666666666 -99.90666666666667 L 633.0244444444444 -106.39777777777778 L 651.651111111111 -120.50888888888888 L 658.4244444444444 -121.91999999999999 L 646.2888888888889 -137.16 L 625.4044444444444 -141.11111111111111 L 625.4044444444444 -133.4911111111111 L 610.4466666666666 -117.12222222222222 L 605.0844444444444 -115.14666666666666 L 605.9311111111111 -110.63111111111111 " stroke="#191919" stroke-width="0.7 px" style="stroke-width:0.7;stroke-miterlimit:4;stroke-dasharray:none;stroke-linecap:square;fill:none;fill-opacity:1;fill-rule: evenodd"/>
<title>b'________________018'</title>
</g>
</svg>